<?xml version="1.0" encoding="UTF-8" standalone="no"?><!DOCTYPE svg PUBLIC "-//W3C//DTD SVG 1.1//EN" "http://www.w3.org/Graphics/SVG/1.1/DTD/svg11.dtd"><svg width="100%" height="100%" viewBox="0 0 2878 703" version="1.1" xmlns="http://www.w3.org/2000/svg" xmlns:xlink="http://www.w3.org/1999/xlink" xml:space="preserve" xmlns:serif="http://www.serif.com/" style="fill-rule:evenodd;clip-rule:evenodd;stroke-linejoin:round;stroke-miterlimit:2;"><rect id="AB-EN-White" serif:id="AB EN White" x="0" y="0" width="2877.03" height="702.709" style="fill:none;"/><path d="M1045.5,409.927l30.833,-0l0,-242.092l0.834,-0l118.333,242.092l41.667,-0l-0,-287.505l-30.834,0l0,242.917l-0.833,0l-118.333,-242.917l-41.667,0l-0,287.505Z" style="fill:#fff;fill-rule:nonzero;"/><path d="M1341.28,409.927l142.9,-0l0,-27.084l-110.416,0l-0,-110.004l101.683,0l-0,-27.083l-101.683,-0l-0,-96.25l106.683,-0l-0,-27.084l-139.167,0l0,287.505Z" style="fill:#fff;fill-rule:nonzero;"/><path d="M1600.79,409.927l32.5,-0l-0,-260.421l68.75,-0l-0,-27.084l-170,0l-0,27.084l68.75,-0l-0,260.421Z" style="fill:#fff;fill-rule:nonzero;"/><path d="M1801.57,409.927l39.583,-0l67.504,-244.175l0.85,-0l66.65,244.175l39.996,-0l50.838,-287.505l-29.167,0l-44.167,246.65l-0.833,0l-67.083,-246.65l-34.15,0l-67.517,246.65l-0.817,0l-43.766,-246.65l-29.167,0l51.246,287.505Z" style="fill:#fff;fill-rule:nonzero;"/><path d="M2171.83,265.339c0,-52.083 9.167,-120.421 67.084,-120.421c57.5,0 66.666,68.338 66.666,120.421c0,51.65 -9.166,122.083 -66.666,122.083c-57.917,0 -67.084,-70.433 -67.084,-122.083Zm67.084,149.167c82.083,-0 102.104,-76.25 102.104,-148.754c-0,-72.917 -20.021,-147.934 -102.104,-147.934c-82.504,0 -102.5,75.017 -102.5,147.934c-0,72.504 19.996,148.754 102.5,148.754Z" style="fill:#fff;"/><path d="M2463.4,149.506l24.167,-0c34.583,-0 73.75,-0 73.75,48.75c-0,47.921 -40.834,56.666 -80,56.666l-17.917,0l-0,-105.416Zm-32.5,260.421l32.5,-0l-0,-127.921l30,-0c44.167,-0 52.916,20 61.667,61.666l14.166,66.255l32.5,-0l-16.667,-78.755c-6.25,-31.666 -9.999,-52.92 -49.583,-63.337l0,-0.829c26.667,-6.667 58.334,-20.417 58.334,-72.104c-0,-69.996 -72.084,-72.48 -91.667,-72.48l-71.25,0l-0,287.505Z" style="fill:#fff;"/><path d="M2687.88,409.927l32.5,-0l0,-140.838l0.833,0l109.171,140.838l38.334,-0l-116.25,-149.588l107.499,-137.917l-37.916,0l-100.838,130.417l-0.833,0l0,-130.417l-32.5,0l0,287.505Z" style="fill:#fff;fill-rule:nonzero;"/><path d="M217.771,333.76l22.133,26.75c-18.787,18.4 -37.016,31.65 -54.654,39.692c-17.45,7.858 -36.529,11.783 -57.242,11.808c-41.612,-0 -73.35,-12.175 -95.204,-36.533c-21.862,-24.55 -32.8,-60.125 -32.8,-106.738c0,-31.433 5.938,-58.579 17.834,-81.404c12.087,-23.008 29.337,-40.35 51.787,-52.067c22.429,-11.875 48.125,-17.816 77.083,-17.833c15.538,-0 30.975,1.15 46.321,3.458c15.521,2.117 29.621,5.088 42.271,8.921l0,69.325l-56.938,0c-2.887,-18.037 -7.187,-31.167 -12.958,-39.408c-5.746,-8.246 -14.008,-12.363 -24.737,-12.379c-7.1,-0 -13.909,1.825 -20.417,5.47c-6.337,3.455 -11.996,9.6 -16.979,18.4c-4.792,8.63 -8.629,20.35 -11.496,35.105c-2.879,14.583 -4.321,33.079 -4.321,55.52c0,22.434 2.1,41.425 6.321,56.95c4.221,15.338 11.021,27.238 20.433,35.667c9.396,8.254 21.755,12.363 37.1,12.363c11.13,-0 21.563,-2.375 31.355,-7.188c9.966,-4.792 21.67,-13.417 35.108,-25.879Z" style="fill:#d13c51;fill-rule:nonzero;"/><path d="M382.3,384.672c-0,22.625 -2.013,41.709 -6.042,57.242c-3.837,15.717 -10.454,29.533 -19.841,41.433c-9.2,11.871 -22.159,22.234 -38.842,31.055c-16.683,9.008 -33.279,15.82 -49.754,20.433l-13.821,-33.667c12.846,-5.175 22.237,-10.45 28.2,-15.812c5.933,-5.388 10.254,-12.296 12.946,-20.713c2.679,-8.266 4.008,-19.675 4.029,-34.233l0,-239.621c0,-9.392 -0.483,-16.962 -1.437,-22.725c-0.784,-5.746 -2.401,-10.346 -4.901,-13.804c-2.291,-3.458 -5.558,-6.046 -9.77,-7.758c-4.034,-1.934 -9.309,-3.559 -15.821,-4.896l-0,-19.567l79.1,-2.292l35.954,0l-0,264.925Z" style="fill:#d13c51;fill-rule:nonzero;"/><rect x="301.188" y="7.264" width="78.821" height="70.487" style="fill:#efa72d;"/><path d="M715.983,410.268l-54.079,-185.541l-63.004,185.541l-58.092,0l-69.912,-218.904c-4.217,-13.421 -7.759,-23.092 -10.642,-29.046c-2.866,-6.129 -6.129,-10.833 -9.775,-14.104c-3.646,-3.45 -8.541,-5.829 -14.671,-7.183l0,-18.992l140.663,0l-0,18.992c-9.013,1.529 -15.817,4.308 -20.417,8.333c-4.429,3.838 -6.616,9.308 -6.616,16.408c-0,4.788 0.762,10.155 2.291,16.109c1.529,5.746 3.263,11.879 5.192,18.4l35.954,119.379l66.146,-197.621l53.508,0l55.817,197.621l37.671,-103.838c3.837,-10.366 6.425,-19.079 7.762,-26.179c1.546,-7.104 2.308,-13.321 2.308,-18.7c0,-8.054 -2.308,-14.666 -6.908,-19.841c-4.604,-5.363 -11.129,-8.717 -19.55,-10.071l0,-18.992l108.438,0l-0,19.271c-5.746,1.737 -10.263,3.746 -13.525,6.042c-3.071,2.308 -6.042,5.47 -8.905,9.495c-2.691,4.03 -5.854,9.88 -9.499,17.555c-3.455,7.666 -8.542,20.033 -15.242,37.104l-77.379,198.762l-57.534,0Z" style="fill:#d13c51;fill-rule:nonzero;"/><path d="M1040.46,649.322l41.175,0c25.425,0 49.5,-9.9 49.5,-42.075c0,-30.15 -18,-37.125 -29.925,-40.05l0,-0.45c3.825,-1.35 22.725,-8.1 22.725,-34.425c0,-25.2 -17.325,-38.25 -42.3,-38.25l-41.175,0l0,155.25Zm17.55,-140.625l17.55,0c12.15,0 30.825,1.8 30.825,24.75c0,27.225 -23.4,27.675 -33.3,27.675l-15.075,0l0,-52.425Zm0,67.05l22.275,0c18.9,0 33.3,10.575 33.3,29.7c0,28.35 -26.55,29.25 -35.325,29.25l-20.25,0l0,-58.95Z" style="fill:#fff;fill-rule:nonzero;"/><path d="M1220.45,649.327l15.3,-0l0,-107.1l-15.3,-0l0,44.1c0,19.35 -9.9,50.175 -30.15,50.175c-15.75,-0 -15.75,-16.425 -15.75,-34.875l0,-59.4l-15.3,-0l0,76.5c0,17.775 9,33.075 27.45,33.075c23.85,-0 30.6,-18.45 33.3,-27.225l0.45,-0l0,24.75Z" style="fill:#fff;fill-rule:nonzero;"/><path d="M1272.65,649.327l15.3,-0l0,-44.1c0,-19.35 10.125,-50.175 30.375,-50.175c15.75,-0 15.75,16.425 15.75,34.875l0,59.4l15.3,-0l0,-76.5c0,-17.775 -9.225,-33.075 -27.45,-33.075c-23.85,-0 -30.6,18.45 -33.525,27.225l-0.45,-0l0,-24.75l-15.3,-0l0,107.1Z" style="fill:#fff;fill-rule:nonzero;"/><path d="M1442.3,649.327l15.3,-0l0,-155.25l-15.3,-0l0,65.7l-0.45,-0c-2.7,-7.65 -9.45,-20.025 -28.125,-20.025c-26.325,-0 -36.45,28.125 -36.45,56.925c0,33.975 10.8,55.125 36.675,55.125c17.1,-0 25.65,-13.05 27.9,-20.7l0.45,-0l0,18.225Zm-47.475,-49.725c0,-22.725 4.5,-47.025 22.725,-47.025c16.2,-0 24.75,19.8 24.75,43.65c0,18.45 -7.65,42.75 -25.2,42.75c-20.25,-0 -22.275,-25.65 -22.275,-39.375Z" style="fill:#fff;fill-rule:nonzero;"/><rect x="1494.73" y="494.077" width="15.3" height="155.25" style="fill:#fff;fill-rule:nonzero;"/><path d="M1617.12,636.052c-4.95,1.125 -9.225,2.925 -21.15,2.925c-30.825,-0 -38.025,-30.825 -38.025,-47.025l-0,-6.3l61.65,-0l0,-5.175c0,-23.4 -12.15,-40.725 -37.35,-40.725c-28.575,-0 -41.85,20.475 -41.85,52.425c0,39.6 19.125,59.625 52.2,59.625c9.9,-0 18,-1.125 24.525,-3.15l-0,-12.6Zm-58.05,-63.225c1.35,-7.2 6.525,-20.25 22.5,-20.25c15.525,-0 20.475,13.05 20.475,20.25l-42.975,-0Z" style="fill:#fff;fill-rule:nonzero;"/><path d="M1704.65,649.327l15.3,-0l-0,-155.25l-15.3,-0l-0,65.7l-0.45,-0c-2.7,-7.65 -9.45,-20.025 -28.125,-20.025c-26.325,-0 -36.45,28.125 -36.45,56.925c0,33.975 10.8,55.125 36.675,55.125c17.1,-0 25.65,-13.05 27.9,-20.7l0.45,-0l-0,18.225Zm-47.475,-49.725c-0,-22.725 4.5,-47.025 22.725,-47.025c16.2,-0 24.75,19.8 24.75,43.65c-0,18.45 -7.65,42.75 -25.2,42.75c-20.25,-0 -22.275,-25.65 -22.275,-39.375Z" style="fill:#fff;fill-rule:nonzero;"/><path d="M1883.75,636.727c-5.85,2.025 -13.5,2.25 -17.325,2.25c-35.55,-0 -42.525,-28.575 -42.525,-49.05c-0,-16.2 6.075,-37.35 25.425,-37.35c14.4,-0 19.125,10.8 19.125,22.275l18.225,-0c-0,-17.1 -8.1,-35.1 -36.675,-35.1c-30.825,-0 -43.65,21.375 -43.65,53.55c-0,38.7 20.925,58.5 55.125,58.5c9.9,-0 15.525,-0.9 22.275,-2.925l-0,-12.15Z" style="fill:#fff;fill-rule:nonzero;"/><path d="M1945.85,651.802c31.725,-0 44.1,-24.525 44.1,-55.8c-0,-31.275 -12.375,-56.25 -44.1,-56.25c-31.5,-0 -43.65,24.975 -43.65,56.25c-0,31.275 12.15,55.8 43.65,55.8Zm-26.1,-56.025c-0,-26.775 8.775,-43.2 26.1,-43.2c17.55,-0 26.55,16.425 26.55,43.2c-0,27 -9,43.2 -26.55,43.2c-17.325,-0 -26.1,-16.2 -26.1,-43.2Z" style="fill:#fff;fill-rule:nonzero;"/><path d="M2017.84,649.327l15.3,-0l-0,-44.1c-0,-19.35 9,-50.175 26.775,-50.175c15.75,-0 15.75,16.425 15.75,34.875l-0,59.4l15.3,-0l-0,-44.1c-0,-19.125 8.775,-50.175 26.775,-50.175c15.75,-0 15.75,16.2 15.75,34.875l-0,59.4l15.3,-0l-0,-76.5c-0,-17.775 -9.225,-33.075 -27.45,-33.075c-19.125,-0 -27.675,16.425 -30.375,24.525l-0.45,-0c-1.125,-14.175 -9,-24.525 -27,-24.525c-21.375,-0 -27.45,18.45 -29.925,27.225l-0.45,-0l-0,-24.75l-15.3,-0l-0,107.1Z" style="fill:#fff;fill-rule:nonzero;"/><path d="M2184.79,697.477l15.3,-0l-0,-65.7l0.45,-0c2.475,7.65 9.45,20.025 28.125,20.025c26.325,-0 36.45,-28.125 36.45,-56.925c-0,-33.975 -10.8,-55.125 -36.675,-55.125c-17.1,-0 -25.65,13.05 -27.9,20.7l-0.45,-0l-0,-18.225l-15.3,-0l-0,155.25Zm15.3,-102.15c-0,-18.45 7.425,-42.75 25.2,-42.75c20.025,-0 22.275,25.65 22.275,39.375c-0,22.725 -4.5,47.025 -22.725,47.025c-16.2,-0 -24.75,-19.8 -24.75,-43.65Z" style="fill:#fff;fill-rule:nonzero;"/><path d="M2362.54,636.052c-4.95,1.125 -9.225,2.925 -21.15,2.925c-30.825,-0 -38.025,-30.825 -38.025,-47.025l-0,-6.3l61.65,-0l-0,-5.175c-0,-23.4 -12.15,-40.725 -37.35,-40.725c-28.575,-0 -41.85,20.475 -41.85,52.425c-0,39.6 19.125,59.625 52.2,59.625c9.9,-0 18,-1.125 24.525,-3.15l-0,-12.6Zm-58.05,-63.225c1.35,-7.2 6.525,-20.25 22.5,-20.25c15.525,-0 20.475,13.05 20.475,20.25l-42.975,-0Z" style="fill:#fff;fill-rule:nonzero;"/><path d="M2443.54,636.952c-3.375,1.125 -5.399,2.025 -10.349,2.025c-15.751,-0 -17.551,-11.025 -17.551,-18l0,-65.925l28.8,-0l0,-12.825l-28.8,-0l0,-34.65l-15.3,9.675l0,24.975l-17.549,-0l-0,12.825l17.549,-0l0,69.075c0,19.125 8.101,27.675 29.7,27.675c4.501,-0 9.001,-0.45 13.5,-1.125l0,-13.725Z" style="fill:#fff;fill-rule:nonzero;"/><path d="M2537.36,636.052c-4.95,1.125 -9.225,2.925 -21.15,2.925c-30.825,-0 -38.024,-30.825 -38.024,-47.025l-0,-6.3l61.649,-0l0,-5.175c0,-23.4 -12.149,-40.725 -37.35,-40.725c-28.574,-0 -41.85,20.475 -41.85,52.425c0,39.6 19.126,59.625 52.2,59.625c9.9,-0 18.001,-1.125 24.525,-3.15l0,-12.6Zm-58.05,-63.225c1.351,-7.2 6.526,-20.25 22.5,-20.25c15.526,-0 20.475,13.05 20.475,20.25l-42.975,-0Z" style="fill:#fff;fill-rule:nonzero;"/><path d="M2567.73,649.327l15.3,-0l0,-44.1c0,-19.35 10.125,-50.175 30.375,-50.175c15.75,-0 15.75,16.425 15.75,34.875l0,59.4l15.3,-0l0,-76.5c0,-17.775 -9.225,-33.075 -27.45,-33.075c-23.85,-0 -30.6,18.45 -33.525,27.225l-0.45,-0l0,-24.75l-15.3,-0l0,107.1Z" style="fill:#fff;fill-rule:nonzero;"/><path d="M2749.98,636.727c-5.85,2.025 -13.5,2.25 -17.325,2.25c-35.55,-0 -42.525,-28.575 -42.525,-49.05c0,-16.2 6.075,-37.35 25.425,-37.35c14.4,-0 19.125,10.8 19.125,22.275l18.225,-0c0,-17.1 -8.1,-35.1 -36.675,-35.1c-30.825,-0 -43.65,21.375 -43.65,53.55c0,38.7 20.925,58.5 55.125,58.5c9.9,-0 15.525,-0.9 22.275,-2.925l0,-12.15Z" style="fill:#fff;fill-rule:nonzero;"/><path d="M2845.61,636.052c-4.95,1.125 -9.225,2.925 -21.15,2.925c-30.825,-0 -38.025,-30.825 -38.025,-47.025l0,-6.3l61.65,-0l0,-5.175c0,-23.4 -12.15,-40.725 -37.35,-40.725c-28.575,-0 -41.85,20.475 -41.85,52.425c0,39.6 19.125,59.625 52.2,59.625c9.9,-0 18,-1.125 24.525,-3.15l0,-12.6Zm-58.05,-63.225c1.35,-7.2 6.525,-20.25 22.5,-20.25c15.525,-0 20.475,13.05 20.475,20.25l-42.975,-0Z" style="fill:#fff;fill-rule:nonzero;"/></svg>