<?xml version="1.0" encoding="UTF-8" standalone="no"?><!DOCTYPE svg PUBLIC "-//W3C//DTD SVG 1.1//EN" "http://www.w3.org/Graphics/SVG/1.1/DTD/svg11.dtd"><svg width="100%" height="100%" viewBox="0 0 2878 617" version="1.1" xmlns="http://www.w3.org/2000/svg" xmlns:xlink="http://www.w3.org/1999/xlink" xml:space="preserve" xmlns:serif="http://www.serif.com/" style="fill-rule:evenodd;clip-rule:evenodd;stroke-linejoin:round;stroke-miterlimit:2;"><rect id="ArtBoard2" x="0" y="0" width="2877.41" height="616.56" style="fill:none;"/><clipPath id="_clip1"><rect x="0" y="0" width="2877.41" height="616.56"/></clipPath><g clip-path="url(#_clip1)"><g><clipPath id="_clip2"><rect x="0" y="0.692" width="2892.58" height="619.85"/></clipPath><g clip-path="url(#_clip2)"><path d="M1128.71,516.75l-47.591,-0l-0,11.912l31.862,0l0,42.717c-2.42,2.017 -11.496,6.967 -25.612,6.967c-32.667,-0 -37.309,-33 -37.309,-57.571c0,-22.917 6.659,-49.129 34.892,-49.129c19.963,-0 26.821,13.2 26.821,24.571l17.746,-0c-0,-21.088 -17.142,-36.492 -44.771,-36.492c-38.113,0 -51.829,28.783 -51.829,61.05c-0,36.671 11.7,69.483 55.662,69.483c21.779,0 36.705,-9.35 40.129,-12.091l0,-61.417Z" style="fill:#7a8287;fill-rule:nonzero;"/><path d="M1168.65,525.912c1.208,-5.866 5.846,-16.495 20.167,-16.495c13.912,-0 18.349,10.629 18.349,16.495l-38.516,0Zm52.029,51.513c-4.437,0.921 -8.271,2.383 -18.958,2.383c-27.629,0 -34.079,-25.112 -34.079,-38.312l-0,-5.133l55.254,-0l-0,-4.217c-0,-19.067 -10.888,-33.188 -33.475,-33.188c-25.613,0 -37.513,16.684 -37.513,42.717c0,32.267 17.142,48.583 46.788,48.583c8.875,0 16.133,-0.912 21.983,-2.562l0,-10.271Z" style="fill:#7a8287;fill-rule:nonzero;"/><path d="M1258.99,548.096c-0,-17.238 6.654,-38.679 23.795,-38.679c15.934,-0 21.175,19.058 21.175,35.741c0,17.425 -6.05,34.65 -23.191,34.65c-20.167,0 -21.779,-21.629 -21.779,-31.712Zm-0,-86.354l-13.713,-0l0,90.57c0,11.367 1.613,37.946 35.896,37.946c27.425,0 38.517,-19.612 38.517,-44.725c-0,-22.55 -7.863,-46.575 -34.284,-46.575c-16.333,0 -23.796,10.271 -26.012,16.504l-0.404,0l-0,-53.72Z" style="fill:#7a8287;fill-rule:nonzero;"/><path d="M1388.86,483.75l18.151,0l-0,-16.138l-18.151,0l0,16.138Zm-35.491,0l18.15,0l-0,-16.138l-18.15,0l-0,16.138Zm45.575,104.5l13.717,-0l-0,-87.275l-13.717,0l-0,35.937c-0,15.767 -8.871,40.88 -27.021,40.88c-14.117,-0 -14.117,-13.38 -14.117,-28.409l0,-48.408l-13.712,0l-0,62.338c-0,14.479 8.067,26.945 24.6,26.945c21.379,0 27.429,-15.029 29.85,-22.183l0.4,-0l-0,20.175Z" style="fill:#7a8287;fill-rule:nonzero;"/><path d="M1445.73,588.25l13.713,-0l-0,-35.938c-0,-15.766 9.075,-40.887 27.225,-40.887c14.116,0 14.116,13.387 14.116,28.417l0,48.408l13.717,-0l0,-62.338c0,-14.487 -8.271,-26.954 -24.604,-26.954c-21.379,0 -27.429,15.038 -30.05,22.184l-0.404,-0l-0,-20.167l-13.713,0l0,87.275Z" style="fill:#7a8287;fill-rule:nonzero;"/><path d="M1555.24,547.729c0,-18.512 4.034,-38.312 20.371,-38.312c14.521,-0 22.184,16.129 22.184,35.562c-0,15.029 -6.859,34.829 -22.588,34.829c-18.15,0 -19.967,-20.895 -19.967,-32.079Zm42.555,40.521l13.712,-0l0,-126.508l-13.712,-0l-0,53.533l-0.405,-0c-2.42,-6.233 -8.47,-16.317 -25.208,-16.317c-23.596,0 -32.671,22.917 -32.671,46.388c0,27.683 9.679,44.912 32.871,44.912c15.329,0 22.992,-10.629 25.008,-16.862l0.405,-0l-0,14.854Z" style="fill:#7a8287;fill-rule:nonzero;"/><path d="M1653.85,525.912c1.213,-5.866 5.85,-16.495 20.167,-16.495c13.917,-0 18.35,10.629 18.35,16.495l-38.517,0Zm52.029,51.513c-4.433,0.921 -8.266,2.383 -18.954,2.383c-27.629,0 -34.083,-25.112 -34.083,-38.312l-0,-5.133l55.258,-0l0,-4.217c0,-19.067 -10.892,-33.188 -33.479,-33.188c-25.608,0 -37.508,16.684 -37.508,42.717c-0,32.267 17.141,48.583 46.787,48.583c8.871,0 16.134,-0.912 21.979,-2.562l0,-10.271Z" style="fill:#7a8287;fill-rule:nonzero;"/><rect x="1734.32" y="461.742" width="13.713" height="126.508" style="fill:#7a8287;fill-rule:nonzero;"/><path d="M1827.08,578.167c-3.021,0.912 -4.841,1.641 -9.275,1.641c-14.116,0 -15.729,-8.983 -15.729,-14.662l0,-53.721l25.813,0l-0,-10.45l-25.813,0l0,-28.229l-13.712,7.887l-0,20.342l-15.729,0l-0,10.45l15.729,0l-0,56.283c-0,15.584 7.258,22.55 26.62,22.55c4.034,0 8.067,-0.366 12.096,-0.912l0,-11.179Z" style="fill:#7a8287;fill-rule:nonzero;"/><path d="M1859.15,525.912c1.212,-5.866 5.85,-16.495 20.167,-16.495c13.912,-0 18.354,10.629 18.354,16.495l-38.521,0Zm52.033,51.513c-4.437,0.921 -8.27,2.383 -18.958,2.383c-27.633,0 -34.083,-25.112 -34.083,-38.312l-0,-5.133l55.258,-0l0,-4.217c0,-19.067 -10.892,-33.188 -33.475,-33.188c-25.612,0 -37.513,16.684 -37.513,42.717c0,32.267 17.138,48.583 46.788,48.583c8.875,0 16.133,-0.912 21.983,-2.562l0,-10.271Z" style="fill:#7a8287;fill-rule:nonzero;"/><path d="M1991.65,588.25l15.729,-0l-0,-61.971l0.404,0l52.838,61.971l18.55,-0l-56.263,-65.821l52.029,-60.687l-18.35,-0l-48.804,57.391l-0.404,0l-0,-57.391l-15.729,-0l-0,126.508Z" style="fill:#7a8287;fill-rule:nonzero;"/><path d="M2104.17,544.613c-0,-21.817 7.871,-35.196 23.4,-35.196c15.729,-0 23.796,13.379 23.796,35.196c-0,21.995 -8.067,35.195 -23.796,35.195c-15.529,0 -23.4,-13.2 -23.4,-35.195Zm23.4,45.645c28.429,0 39.525,-19.979 39.525,-45.466c-0,-25.479 -11.096,-45.834 -39.525,-45.834c-28.233,0 -39.125,20.355 -39.125,45.834c-0,25.487 10.892,45.466 39.125,45.466Z" style="fill:#7a8287;fill-rule:nonzero;"/><path d="M2192.1,588.25l13.713,-0l-0,-35.938c-0,-15.766 8.066,-40.887 24,-40.887c14.112,0 14.112,13.387 14.112,28.417l0,48.408l13.713,-0l-0,-35.938c-0,-15.587 7.871,-40.887 24.004,-40.887c14.116,0 14.116,13.2 14.116,28.417l0,48.408l13.713,-0l-0,-62.338c-0,-14.487 -8.271,-26.954 -24.604,-26.954c-17.146,0 -24.804,13.388 -27.229,19.988l-0.4,-0c-1.009,-11.55 -8.067,-19.988 -24.2,-19.988c-19.159,0 -24.604,15.038 -26.821,22.184l-0.404,-0l-0,-20.167l-13.713,0l0,87.275Z" style="fill:#7a8287;fill-rule:nonzero;"/><path d="M2355.45,544.246c0,-15.029 6.654,-34.829 22.588,-34.829c17.945,-0 19.962,20.895 19.962,32.079c0,18.512 -4.033,38.312 -20.367,38.312c-14.52,0 -22.183,-16.129 -22.183,-35.562Zm-13.712,83.237l13.712,0l0,-53.541l0.404,-0c2.217,6.233 8.471,16.316 25.209,16.316c23.596,0 32.67,-22.916 32.67,-46.379c0,-27.683 -9.683,-44.921 -32.875,-44.921c-15.324,0 -22.987,10.638 -25.004,16.871l-0.404,0l0,-14.854l-13.712,0l-0,126.508Z" style="fill:#7a8287;fill-rule:nonzero;"/><path d="M2449.03,525.912c1.209,-5.866 5.842,-16.495 20.167,-16.495c13.912,-0 18.35,10.629 18.35,16.495l-38.517,0Zm52.029,51.513c-4.437,0.921 -8.271,2.383 -18.958,2.383c-27.629,0 -34.079,-25.112 -34.079,-38.312l-0,-5.133l55.254,-0l0,-4.217c0,-19.067 -10.892,-33.188 -33.479,-33.188c-25.609,0 -37.508,16.684 -37.508,42.717c-0,32.267 17.141,48.583 46.787,48.583c8.875,0 16.133,-0.912 21.983,-2.562l0,-10.271Z" style="fill:#7a8287;fill-rule:nonzero;"/><path d="M2573.66,578.167c-3.025,0.912 -4.841,1.641 -9.279,1.641c-14.117,0 -15.729,-8.983 -15.729,-14.662l0,-53.721l25.812,0l0,-10.45l-25.812,0l0,-28.229l-13.712,7.887l-0,20.342l-15.73,0l0,10.45l15.73,0l-0,56.283c-0,15.584 7.254,22.55 26.62,22.55c4.034,0 8.063,-0.366 12.1,-0.912l0,-11.179Z" style="fill:#7a8287;fill-rule:nonzero;"/><path d="M2605.72,525.912c1.212,-5.866 5.85,-16.495 20.167,-16.495c13.916,-0 18.354,10.629 18.354,16.495l-38.521,0Zm52.033,51.513c-4.442,0.921 -8.275,2.383 -18.958,2.383c-27.629,0 -34.084,-25.112 -34.084,-38.312l0,-5.133l55.259,-0l-0,-4.217c-0,-19.067 -10.892,-33.188 -33.475,-33.188c-25.617,0 -37.513,16.684 -37.513,42.717c0,32.267 17.142,48.583 46.784,48.583c8.879,0 16.137,-0.912 21.987,-2.562l0,-10.271Z" style="fill:#7a8287;fill-rule:nonzero;"/><path d="M2684.98,588.25l13.713,-0l-0,-35.938c-0,-15.766 9.075,-40.887 27.225,-40.887c14.116,0 14.116,13.387 14.116,28.417l0,48.408l13.713,-0l-0,-62.338c-0,-14.487 -8.267,-26.954 -24.604,-26.954c-21.375,0 -27.425,15.038 -30.046,22.184l-0.404,-0l-0,-20.167l-13.713,0l0,87.275Z" style="fill:#7a8287;fill-rule:nonzero;"/><path d="M2775.93,588.25l68.767,-0l-0,-10.458l-51.825,-0l50.012,-66.18l0,-10.637l-63.325,0l0,10.45l46.588,0l-50.217,66.554l0,10.271Z" style="fill:#7a8287;fill-rule:nonzero;"/><path d="M1045.5,407.521l30.833,-0l0,-242.088l0.834,0l118.333,242.088l41.667,-0l-0,-287.504l-30.834,-0l0,242.916l-0.833,0l-118.333,-242.916l-41.667,-0l-0,287.504Z" style="fill:#7a8287;fill-rule:nonzero;"/><path d="M1341.28,407.521l142.9,-0l0,-27.084l-110.416,0l-0,-110.004l101.683,0l-0,-27.083l-101.683,-0l-0,-96.25l106.683,-0l-0,-27.083l-139.167,-0l0,287.504Z" style="fill:#7a8287;fill-rule:nonzero;"/><path d="M1600.79,407.521l32.5,-0l-0,-260.421l68.75,-0l-0,-27.083l-170,-0l-0,27.083l68.75,-0l-0,260.421Z" style="fill:#7a8287;fill-rule:nonzero;"/><path d="M1801.57,407.521l39.583,-0l67.504,-244.171l0.85,0l66.65,244.171l39.996,-0l50.838,-287.504l-29.167,-0l-44.167,246.65l-0.833,-0l-67.083,-246.65l-34.15,-0l-67.517,246.65l-0.817,-0l-43.766,-246.65l-29.167,-0l51.246,287.504Z" style="fill:#7a8287;fill-rule:nonzero;"/><path d="M2171.83,262.933c0,-52.083 9.167,-120.416 67.084,-120.416c57.5,-0 66.666,68.333 66.666,120.416c0,51.65 -9.166,122.088 -66.666,122.088c-57.917,-0 -67.084,-70.438 -67.084,-122.088Zm67.084,149.171c82.083,0 102.104,-76.254 102.104,-148.754c-0,-72.917 -20.021,-147.933 -102.104,-147.933c-82.504,-0 -102.5,75.016 -102.5,147.933c-0,72.5 19.996,148.754 102.5,148.754Z" style="fill:#7a8287;"/><path d="M2463.4,147.1l24.167,-0c34.583,-0 73.75,-0 73.75,48.75c-0,47.917 -40.834,56.667 -80,56.667l-17.917,-0l-0,-105.417Zm-32.5,260.421l32.5,-0l-0,-127.921l30,0c44.167,0 52.916,20 61.667,61.671l14.166,66.25l32.5,-0l-16.667,-78.75c-6.25,-31.671 -9.999,-52.921 -49.583,-63.338l0,-0.833c26.667,-6.667 58.334,-20.417 58.334,-72.1c-0,-70 -72.084,-72.483 -91.667,-72.483l-71.25,-0l-0,287.504Z" style="fill:#7a8287;"/><path d="M2687.88,407.521l32.5,-0l0,-140.838l0.833,0l109.171,140.838l38.334,-0l-116.25,-149.588l107.499,-137.916l-37.916,-0l-100.838,130.416l-0.833,0l0,-130.416l-32.5,-0l0,287.504Z" style="fill:#7a8287;fill-rule:nonzero;"/><path d="M217.771,331.358l22.133,26.75c-18.787,18.4 -37.016,31.646 -54.654,39.688c-17.45,7.862 -36.529,11.783 -57.242,11.808c-41.612,0 -73.35,-12.175 -95.204,-36.529c-21.862,-24.554 -32.8,-60.125 -32.8,-106.742c0,-31.437 5.938,-58.575 17.834,-81.404c12.087,-23.004 29.337,-40.346 51.787,-52.067c22.429,-11.875 48.125,-17.812 77.083,-17.829c15.538,0 30.975,1.146 46.321,3.455c15.521,2.116 29.621,5.087 42.271,8.925l0,69.32l-56.938,0c-2.887,-18.037 -7.187,-31.162 -12.958,-39.408c-5.746,-8.246 -14.008,-12.363 -24.737,-12.379c-7.1,-0 -13.909,1.829 -20.417,5.475c-6.337,3.45 -11.996,9.596 -16.979,18.4c-4.792,8.625 -8.629,20.346 -11.496,35.1c-2.879,14.583 -4.321,33.075 -4.321,55.525c0,22.429 2.1,41.421 6.321,56.946c4.221,15.341 11.021,27.237 20.433,35.67c9.396,8.251 21.755,12.359 37.1,12.359c11.13,-0 21.563,-2.375 31.355,-7.184c9.966,-4.795 21.67,-13.42 35.108,-25.879Z" style="fill:#d13c51;fill-rule:nonzero;"/><path d="M382.3,382.271c-0,22.621 -2.013,41.704 -6.042,57.237c-3.837,15.717 -10.454,29.534 -19.841,41.434c-9.2,11.87 -22.159,22.233 -38.842,31.054c-16.683,9.008 -33.279,15.821 -49.754,20.433l-13.821,-33.666c12.846,-5.176 22.237,-10.45 28.2,-15.813c5.933,-5.388 10.254,-12.296 12.946,-20.712c2.679,-8.267 4.008,-19.676 4.029,-34.234l0,-239.621c0,-9.391 -0.483,-16.962 -1.437,-22.725c-0.784,-5.746 -2.401,-10.346 -4.901,-13.804c-2.291,-3.454 -5.558,-6.042 -9.77,-7.758c-4.034,-1.929 -9.309,-3.558 -15.821,-4.896l-0,-19.567l79.1,-2.291l35.954,-0l-0,264.929Z" style="fill:#d13c51;fill-rule:nonzero;"/><rect x="301.188" y="4.858" width="78.821" height="70.488" style="fill:#efa72d;"/><path d="M715.983,407.862l-54.079,-185.537l-63.004,185.537l-58.092,0l-69.912,-218.899c-4.217,-13.426 -7.759,-23.096 -10.642,-29.051c-2.866,-6.129 -6.129,-10.833 -9.775,-14.1c-3.646,-3.454 -8.541,-5.833 -14.671,-7.187l0,-18.992l140.663,0l-0,18.992c-9.013,1.529 -15.817,4.308 -20.417,8.333c-4.429,3.838 -6.616,9.309 -6.616,16.409c-0,4.791 0.762,10.154 2.291,16.112c1.529,5.746 3.263,11.875 5.192,18.4l35.954,119.375l66.146,-197.621l53.508,0l55.817,197.621l37.671,-103.837c3.837,-10.363 6.425,-19.075 7.762,-26.179c1.546,-7.1 2.308,-13.317 2.308,-18.696c0,-8.059 -2.308,-14.671 -6.908,-19.846c-4.604,-5.363 -11.129,-8.717 -19.55,-10.071l0,-18.992l108.438,0l-0,19.271c-5.746,1.738 -10.263,3.75 -13.525,6.042c-3.071,2.308 -6.042,5.475 -8.905,9.496c-2.691,4.029 -5.854,9.879 -9.499,17.554c-3.455,7.671 -8.542,20.033 -15.242,37.104l-77.379,198.762l-57.534,0Z" style="fill:#d13c51;fill-rule:nonzero;"/></g></g></g></svg>