<?xml version="1.0" encoding="UTF-8" standalone="no"?>
<!DOCTYPE svg PUBLIC "-//W3C//DTD SVG 1.1//EN" "http://www.w3.org/Graphics/SVG/1.1/DTD/svg11.dtd">
<svg width="100%" height="100%" viewBox="0 0 521 46" version="1.1" xmlns="http://www.w3.org/2000/svg" xmlns:xlink="http://www.w3.org/1999/xlink" xml:space="preserve" xmlns:serif="http://www.serif.com/" style="fill-rule:evenodd;clip-rule:evenodd;stroke-linejoin:round;stroke-miterlimit:2;">
    <g transform="matrix(4.16667,0,0,4.16667,0,0)">
        <path d="M37.149,4.859L35.293,4.859C34.551,4.859 34.112,5.246 34.112,6.04L34.112,8.621C34.112,9.415 34.551,9.802 35.293,9.802L37.149,9.802C37.875,9.802 38.33,9.415 38.33,8.621L38.33,6.04C38.33,5.246 37.875,4.859 37.149,4.859ZM37.149,10.983L35.293,10.983C33.942,10.983 32.932,10.106 32.932,8.621L32.932,0.81C32.932,0.421 33.2,0.22 33.522,0.22C33.808,0.22 34.112,0.421 34.112,0.81L34.112,3.947C34.467,3.761 34.871,3.679 35.293,3.679L37.149,3.679C38.448,3.679 39.512,4.555 39.512,6.04L39.512,8.621C39.512,10.106 38.448,10.983 37.149,10.983Z" style="fill:rgb(76,93,103);fill-rule:nonzero;"/>
        <path d="M25.272,7.051C25.846,7 27.939,6.749 27.939,6.765C28.799,6.679 28.984,6.427 28.984,5.803C28.984,5.212 28.629,4.859 27.804,4.859L25.931,4.859C25.189,4.859 24.749,5.246 24.749,6.04L24.749,7.169C24.903,7.12 25.087,7.07 25.272,7.051ZM25.947,3.679L27.804,3.679C29.052,3.679 30.166,4.352 30.166,5.803C30.166,7.205 29.339,7.828 28.057,7.947C28.04,7.947 25.998,8.149 25.424,8.216C25.087,8.265 24.85,8.367 24.766,8.687L24.766,8.857C24.817,9.516 25.238,9.818 25.897,9.818L27.55,9.818C28.242,9.818 28.647,9.582 28.764,9.093C28.849,8.773 29.052,8.654 29.305,8.654C29.625,8.654 29.93,8.857 29.93,9.212C29.93,9.244 29.913,9.312 29.896,9.396C29.591,10.595 28.545,11 27.55,11L25.897,11C24.547,11 23.567,10.072 23.567,8.638L23.567,5.701C23.567,4.998 24.096,3.679 25.947,3.679Z" style="fill:rgb(76,93,103);fill-rule:nonzero;"/>
        <path d="M20.856,9.253L20.856,4.2C20.856,3.811 20.552,3.609 20.265,3.609C19.943,3.609 19.674,3.811 19.674,4.2L19.674,8.621C19.674,9.415 19.219,9.802 18.493,9.802L17.144,9.802C16.401,9.802 15.962,9.415 15.962,8.621L15.962,4.2C15.962,3.811 15.658,3.609 15.372,3.609C15.052,3.609 14.78,3.811 14.78,4.2L14.78,8.621C14.78,9.415 14.325,9.802 13.6,9.802L12.251,9.802C11.508,9.802 11.068,9.415 11.068,8.621L11.068,4.216C11.068,3.83 10.766,3.626 10.479,3.626C10.158,3.626 9.888,3.83 9.888,4.216L9.888,8.621C9.888,10.106 10.901,10.983 12.251,10.983L13.6,10.983C14.258,10.983 14.916,10.73 15.372,10.274C15.81,10.746 16.401,10.983 17.144,10.983L18.493,10.983C20.298,10.983 20.856,9.791 20.856,9.253Z" style="fill:rgb(76,93,103);fill-rule:nonzero;"/>
        <path d="M60.778,7.557C60.205,7.609 58.112,7.861 58.112,7.845C57.252,7.929 57.066,8.181 57.066,8.804C57.066,9.396 57.42,9.751 58.247,9.751L60.12,9.751C60.862,9.751 61.301,9.362 61.301,8.57L61.301,7.439C61.149,7.49 60.963,7.541 60.778,7.557ZM60.103,10.931L58.247,10.931C57,10.931 55.886,10.256 55.886,8.804C55.886,7.406 56.71,6.782 57.994,6.665C58.011,6.665 60.052,6.46 60.627,6.394C60.963,6.343 61.2,6.24 61.285,5.922L61.285,5.751C61.234,5.095 60.813,4.791 60.154,4.791L58.501,4.791C57.808,4.791 57.404,5.027 57.285,5.516C57.202,5.837 57,5.956 56.745,5.956C56.425,5.956 56.122,5.751 56.122,5.398C56.122,5.365 56.139,5.296 56.155,5.213C56.459,4.013 57.504,3.611 58.501,3.611L60.154,3.611C61.503,3.611 62.483,4.537 62.483,5.971L62.483,8.908C62.483,9.611 61.954,10.931 60.103,10.931Z" style="fill:rgb(247,168,35);fill-rule:nonzero;"/>
        <path d="M93.012,7.558C92.439,7.609 90.345,7.863 90.345,7.845C89.486,7.929 89.3,8.183 89.3,8.808C89.3,9.397 89.656,9.751 90.482,9.751L92.354,9.751C93.097,9.751 93.536,9.365 93.536,8.572L93.536,7.441C93.382,7.492 93.199,7.543 93.012,7.558ZM92.337,10.933L90.482,10.933C89.234,10.933 88.119,10.259 88.119,8.808C88.119,7.408 88.947,6.783 90.227,6.666C90.246,6.666 92.287,6.462 92.861,6.395C93.199,6.344 93.435,6.242 93.517,5.922L93.517,5.753C93.467,5.096 93.047,4.792 92.387,4.792L90.735,4.792C90.043,4.792 89.638,5.027 89.519,5.517C89.435,5.838 89.234,5.957 88.98,5.957C88.659,5.957 88.356,5.753 88.356,5.4C88.356,5.365 88.373,5.298 88.39,5.213C88.693,4.015 89.74,3.611 90.735,3.611L92.387,3.611C93.738,3.611 94.716,4.539 94.716,5.974L94.716,8.908C94.716,9.613 94.189,10.933 92.337,10.933Z" style="fill:rgb(247,168,35);fill-rule:nonzero;"/>
        <path d="M71.148,10.965C70.862,10.965 70.558,10.763 70.558,10.375L70.558,5.971C70.558,5.178 70.119,4.791 69.377,4.791L67.521,4.791C66.796,4.791 66.34,5.178 66.34,5.971L66.34,10.392C66.34,10.78 66.07,10.982 65.75,10.982C65.461,10.982 65.159,10.78 65.159,10.392L65.159,5.992C65.159,4.516 66.058,3.611 67.521,3.611L69.377,3.611C70.727,3.611 71.739,4.487 71.739,5.971L71.739,10.375C71.739,10.763 71.47,10.965 71.148,10.965Z" style="fill:rgb(247,168,35);fill-rule:nonzero;"/>
        <path d="M74.574,3.626C74.861,3.626 75.165,3.83 75.165,4.217L75.165,8.621C75.165,9.414 75.605,9.802 76.345,9.802L78.203,9.802C78.926,9.802 79.381,9.414 79.381,8.621L79.381,4.2C79.381,3.811 79.653,3.611 79.972,3.611C80.259,3.611 80.563,3.811 80.563,4.2L80.563,8.6C80.563,10.077 79.666,10.982 78.203,10.982L76.345,10.982C74.996,10.982 73.983,10.105 73.983,8.621L73.983,4.217C73.983,3.83 74.254,3.626 74.574,3.626Z" style="fill:rgb(247,168,35);fill-rule:nonzero;"/>
        <path d="M111.857,3.626C112.145,3.626 112.449,3.83 112.449,4.217L112.449,8.621C112.449,9.414 112.887,9.802 113.631,9.802L115.486,9.802C116.211,9.802 116.665,9.414 116.665,8.621L116.665,4.2C116.665,3.811 116.937,3.611 117.258,3.611C117.545,3.611 117.848,3.811 117.848,4.2L117.848,8.6C117.848,10.077 116.949,10.982 115.486,10.982L113.631,10.982C112.279,10.982 111.267,10.105 111.267,8.621L111.267,4.217C111.267,3.83 111.538,3.626 111.857,3.626Z" style="fill:rgb(247,168,35);fill-rule:nonzero;"/>
        <path d="M85.777,1.652L85.541,1.652C84.798,1.652 84.359,2.041 84.359,2.834L84.359,3.611L85.742,3.611C86.131,3.611 86.332,3.88 86.332,4.2C86.332,4.487 86.131,4.791 85.742,4.791L84.359,4.791L84.359,10.375C84.359,10.763 84.089,10.965 83.769,10.965C83.482,10.965 83.178,10.763 83.178,10.375L83.178,2.834C83.178,1.348 84.191,0.47 85.541,0.47L85.777,0.47C86.165,0.47 86.368,0.742 86.368,1.062C86.368,1.348 86.165,1.652 85.777,1.652Z" style="fill:rgb(247,168,35);fill-rule:nonzero;"/>
        <path d="M103.278,11C103.127,11 102.975,10.931 102.857,10.814L99.853,7.742L98.369,9.11L98.369,10.392C98.369,10.78 98.099,10.982 97.778,10.982C97.491,10.982 97.187,10.78 97.187,10.392L97.187,0.742C97.187,0.353 97.459,0.151 97.778,0.151C98.066,0.151 98.369,0.353 98.369,0.742L98.369,7.507L102.471,3.71C102.587,3.592 102.722,3.543 102.875,3.543C103.195,3.543 103.48,3.83 103.48,4.148C103.48,4.3 103.414,4.455 103.278,4.587L100.715,6.933L103.701,9.97C103.818,10.123 103.887,10.256 103.887,10.392C103.887,10.712 103.6,11 103.278,11Z" style="fill:rgb(247,168,35);fill-rule:nonzero;"/>
        <path d="M108.841,10.931L108.604,10.931C107.256,10.931 106.242,10.056 106.242,8.57L106.242,1.248C106.242,0.859 106.512,0.657 106.834,0.657C107.119,0.657 107.424,0.859 107.424,1.248L107.424,3.611L108.807,3.611C109.195,3.611 109.397,3.88 109.397,4.2C109.397,4.487 109.195,4.791 108.807,4.791L107.424,4.791L107.424,8.57C107.424,9.362 107.863,9.751 108.604,9.751L108.841,9.751C109.23,9.751 109.432,10.021 109.432,10.341C109.432,10.627 109.23,10.931 108.841,10.931Z" style="fill:rgb(247,168,35);fill-rule:nonzero;"/>
        <path d="M124.133,4.806L122.783,4.806C122.057,4.806 121.603,5.178 121.603,5.971L121.603,10.375C121.603,10.73 121.363,10.965 121.013,10.965C120.624,10.965 120.421,10.696 120.421,10.375L120.421,5.957C120.421,4.302 121.134,3.611 122.783,3.611L124.133,3.611C124.521,3.611 124.725,3.929 124.725,4.217C124.725,4.537 124.521,4.806 124.133,4.806Z" style="fill:rgb(247,168,35);fill-rule:nonzero;"/>
        <path d="M42.382,5.272L42.382,10.325C42.382,10.712 42.685,10.915 42.973,10.915C43.293,10.915 43.562,10.712 43.562,10.325L43.562,5.904C43.562,5.111 44.018,4.722 44.744,4.722L46.093,4.722C46.835,4.722 47.274,5.111 47.274,5.904L47.274,10.325C47.274,10.712 47.579,10.915 47.865,10.915C48.185,10.915 48.456,10.712 48.456,10.325L48.456,5.904C48.456,5.111 48.911,4.722 49.637,4.722L50.988,4.722C51.729,4.722 52.168,5.111 52.168,5.904L52.168,10.306C52.168,10.696 52.47,10.899 52.758,10.899C53.079,10.899 53.348,10.696 53.348,10.306L53.348,5.904C53.348,4.418 52.337,3.543 50.988,3.543L49.637,3.543C48.979,3.543 48.321,3.795 47.865,4.251C47.428,3.778 46.835,3.543 46.093,3.543L44.744,3.543C42.939,3.543 42.382,4.734 42.382,5.272Z" style="fill:rgb(247,168,35);fill-rule:nonzero;"/>
        <path d="M6.083,9.82L3.872,9.82L3.872,9.817L0.591,9.817C0.202,9.817 0,10.122 0,10.407C0,10.728 0.202,10.998 0.591,10.998L1.895,10.998L1.895,11L6.083,11C6.472,11 6.674,10.696 6.674,10.411C6.674,10.089 6.472,9.82 6.083,9.82Z" style="fill:rgb(76,93,103);fill-rule:nonzero;"/>
    </g>
</svg>
