<?xml version="1.0" encoding="UTF-8" standalone="no"?>
<!DOCTYPE svg PUBLIC "-//W3C//DTD SVG 1.1//EN" "http://www.w3.org/Graphics/SVG/1.1/DTD/svg11.dtd">
<svg width="100%" height="100%" viewBox="0 0 1722 467" version="1.1" xmlns="http://www.w3.org/2000/svg" xmlns:xlink="http://www.w3.org/1999/xlink" xml:space="preserve" xmlns:serif="http://www.serif.com/" style="fill-rule:evenodd;clip-rule:evenodd;stroke-linejoin:round;stroke-miterlimit:2;">
    <g transform="matrix(0.1,0,0,-0.1,-1.65043,468.649)">
        <path d="M2322,4675C2149,4636 1994,4511 1924,4354C1898,4295 1870,4169 1870,4113C1870,4043 1899,3936 1940,3854C1970,3791 1996,3758 2052,3704C2366,3406 2855,3534 2996,3950C3022,4027 3022,4203 2996,4280C2914,4522 2718,4675 2475,4686C2418,4688 2362,4684 2322,4675Z" style="fill:rgb(26,78,126);fill-rule:nonzero;"/>
        <path d="M119,4168C520,3769 763,3267 835,2690C873,2383 842,1877 764,1495C663,1009 502,642 174,151C98,37 92,25 111,22C123,20 135,22 139,28C142,33 614,718 1187,1551C1761,2384 2230,3069 2231,3074C2231,3079 1749,3350 1158,3676C338,4130 77,4269 51,4270L17,4270L119,4168Z" style="fill:rgb(26,78,126);fill-rule:nonzero;"/>
        <path d="M3733,3677C3143,3351 2660,3081 2660,3076C2660,3071 4706,89 4756,22C4757,20 4768,20 4779,22C4797,25 4788,43 4701,175C4431,589 4299,863 4196,1220C4088,1593 4032,2046 4043,2448C4049,2672 4065,2799 4110,2985C4218,3437 4430,3818 4759,4153L4874,4270L4839,4269C4813,4269 4549,4128 3733,3677Z" style="fill:rgb(26,78,126);fill-rule:nonzero;"/>
        <path d="M12483,3643L12380,3608L12380,3280L12150,3280L12150,3120L12380,3120L12380,2742C12380,2315 12384,2285 12444,2232C12491,2191 12552,2180 12740,2180L12900,2180L12900,2340L12780,2340C12651,2340 12618,2349 12601,2387C12594,2403 12590,2527 12590,2765L12590,3120L12900,3120L12900,3280L12590,3280L12588,3478L12585,3677L12483,3643Z" style="fill:rgb(26,78,126);fill-rule:nonzero;"/>
        <path d="M7770,3355C7531,3307 7373,3153 7324,2920C7301,2811 7309,2637 7342,2549C7414,2355 7551,2234 7755,2183C7876,2153 8101,2161 8253,2201L8290,2211L8290,2422L8263,2416C8197,2401 7950,2397 7889,2410C7771,2435 7694,2511 7664,2630C7644,2710 7649,2881 7674,2951C7698,3017 7751,3074 7818,3107C7873,3134 7880,3135 8030,3135C8115,3135 8206,3132 8233,3128L8280,3120L8280,3338L8253,3344C8119,3372 7881,3377 7770,3355Z" style="fill:rgb(26,78,126);fill-rule:nonzero;"/>
        <path d="M5420,2793C5420,2440 5416,2211 5410,2189C5404,2166 5374,2124 5334,2081C5298,2042 5270,2006 5272,2000C5275,1989 5432,1850 5441,1850C5453,1850 5698,2117 5716,2150C5734,2183 5735,2217 5738,2773L5741,3360L5420,3360L5420,2793Z" style="fill:rgb(26,78,126);fill-rule:nonzero;"/>
        <path d="M6110,2788C5992,2473 5892,2208 5888,2198C5881,2181 5891,2180 6048,2180L6216,2180L6258,2310L6301,2440L6795,2440L6831,2313L6867,2185L7038,2182C7133,2181 7210,2183 7210,2186C7210,2190 7119,2456 7008,2777L6807,3360L6325,3360L6110,2788ZM6584,3098C6593,3069 6626,2958 6658,2853L6717,2660L6372,2660L6450,2894C6493,3023 6531,3134 6535,3139C6550,3164 6569,3147 6584,3098Z" style="fill:rgb(26,78,126);fill-rule:nonzero;"/>
        <path d="M9285,3300C9156,3286 9079,3257 9011,3194C8914,3107 8894,2926 8971,2820C9027,2743 9118,2699 9315,2656C9381,2641 9460,2617 9490,2602C9650,2523 9610,2371 9419,2330C9343,2313 9131,2323 9018,2348L8930,2367L8930,2193L9003,2181C9374,2121 9634,2169 9747,2318C9833,2432 9821,2625 9722,2712C9670,2757 9595,2788 9457,2821C9186,2885 9140,2911 9140,2997C9140,3035 9145,3047 9173,3075C9193,3095 9227,3114 9260,3124C9329,3144 9492,3145 9624,3125C9679,3117 9725,3110 9727,3110C9734,3110 9730,3269 9722,3274C9695,3291 9378,3310 9285,3300Z" style="fill:rgb(26,78,126);fill-rule:nonzero;"/>
        <path d="M11515,3303C11260,3284 11126,3172 11127,2980C11127,2808 11223,2723 11479,2664C11690,2616 11743,2592 11775,2530C11818,2447 11761,2367 11637,2334C11556,2312 11385,2317 11248,2344L11130,2367L11130,2193L11203,2181C11624,2113 11895,2182 11983,2379C12015,2450 12012,2569 11977,2636C11929,2731 11853,2774 11657,2821C11386,2885 11340,2911 11340,2997C11340,3035 11345,3047 11373,3075C11393,3095 11427,3114 11460,3124C11529,3144 11692,3145 11824,3125C11879,3117 11925,3110 11927,3110C11929,3110 11930,3147 11928,3193L11925,3275L11845,3286C11756,3298 11577,3308 11515,3303Z" style="fill:rgb(26,78,126);fill-rule:nonzero;"/>
        <path d="M13525,3300C13393,3285 13303,3244 13224,3166C13124,3065 13080,2940 13080,2749C13080,2549 13130,2411 13241,2305C13306,2243 13409,2190 13500,2171C13629,2144 13846,2148 13998,2180L14050,2192L14050,2266C14050,2307 14047,2340 14043,2340C14038,2340 13990,2333 13935,2325C13585,2274 13394,2345 13330,2549C13319,2584 13310,2623 13310,2636L13310,2660L14130,2660L14130,2745C14130,2977 14042,3158 13892,3238C13792,3291 13654,3315 13525,3300ZM13677,3147C13808,3119 13873,3032 13894,2858L13900,2810L13307,2810L13313,2868C13327,3020 13409,3125 13533,3150C13593,3161 13608,3161 13677,3147Z" style="fill:rgb(26,78,126);fill-rule:nonzero;"/>
        <path d="M15515,3299C15444,3289 15360,3260 15270,3215L15204,3182L15158,3225C15095,3285 15028,3304 14901,3297C14793,3291 14711,3266 14568,3192C14563,3190 14560,3209 14560,3234L14560,3280L14380,3280L14380,2180L14580,2180L14580,3027L14651,3060C14750,3105 14804,3120 14872,3120C14948,3120 14994,3100 15017,3058C15033,3028 15035,2988 15038,2603L15041,2180L15250,2180L15250,3038L15323,3068C15423,3109 15465,3120 15535,3120C15610,3120 15659,3097 15682,3050C15698,3018 15700,2975 15700,2598L15700,2180L15910,2180L15910,2613C15910,3077 15907,3107 15857,3189C15805,3274 15662,3320 15515,3299Z" style="fill:rgb(26,78,126);fill-rule:nonzero;"/>
        <path d="M16614,3299C16396,3274 16252,3147 16195,2930C16172,2843 16171,2659 16194,2570C16247,2363 16386,2221 16581,2175C16714,2144 16941,2147 17102,2181L17150,2192L17150,2266C17150,2307 17147,2340 17143,2340C17138,2340 17090,2333 17035,2325C16850,2298 16686,2308 16591,2353C16500,2396 16433,2491 16412,2608L16403,2660L17233,2660L17227,2778C17212,3109 17054,3282 16750,3302C16714,3305 16653,3303 16614,3299ZM16811,3140C16864,3125 16933,3060 16960,2998C16973,2968 16985,2916 16988,2878L16993,2810L16407,2810L16413,2875C16423,2984 16472,3073 16545,3115C16618,3158 16708,3167 16811,3140Z" style="fill:rgb(26,78,126);fill-rule:nonzero;"/>
        <path d="M9921,3253C9927,3238 10010,3016 10105,2760C10200,2504 10288,2269 10300,2238L10321,2180L10366,2180C10390,2180 10410,2178 10410,2176C10410,2174 10368,2069 10316,1944L10221,1715L10327,1712C10385,1711 10434,1711 10437,1713C10439,1715 10566,2056 10719,2471C10873,2886 11003,3237 11009,3253L11020,3280L10793,3280L10634,2816C10547,2560 10474,2353 10472,2354C10470,2356 10396,2564 10307,2816L10145,3275L10027,3278L9910,3281L9921,3253Z" style="fill:rgb(26,78,126);fill-rule:nonzero;"/>
        <path d="M1393,1542L340,25L388,22C429,19 438,22 458,47C471,62 558,173 652,293C917,630 1021,751 1200,931C1442,1173 1631,1316 1855,1425C2073,1532 2216,1565 2455,1565C2604,1564 2638,1561 2730,1538C3065,1454 3339,1282 3681,941C3878,743 3977,629 4215,325C4471,-4 4448,21 4503,21C4529,20 4550,22 4550,24C4550,29 2463,3041 2452,3052C2448,3056 1971,2377 1393,1542Z" style="fill:rgb(26,78,126);fill-rule:nonzero;"/>
        <path d="M15810,1376C15810,1093 15813,979 15821,974C15828,970 15894,965 15969,963C16092,958 16111,960 16165,980C16244,1010 16311,1077 16330,1146C16362,1254 16337,1385 16272,1454C16222,1507 16156,1530 16053,1530L15960,1530L15960,1770L15810,1770L15810,1376ZM16110,1412C16181,1377 16213,1247 16174,1150C16147,1083 16104,1063 15998,1068L15960,1070L15960,1243C15960,1339 15963,1420 15967,1423C15980,1437 16076,1430 16110,1412Z" style="fill:rgb(26,78,126);fill-rule:nonzero;"/>
        <path d="M14269,1697C14107,1642 14031,1510 14043,1305C14050,1182 14071,1128 14139,1059C14186,1011 14206,999 14264,981C14343,957 14487,953 14601,971L14670,983L14670,1310L14520,1310L14520,1081L14485,1074C14440,1066 14337,1084 14297,1108C14228,1148 14193,1248 14203,1374C14214,1502 14277,1579 14390,1600C14423,1607 14489,1608 14553,1604L14660,1597L14660,1652C14660,1706 14659,1708 14629,1714C14612,1717 14538,1720 14466,1720C14357,1720 14324,1716 14269,1697Z" style="fill:rgb(26,78,126);fill-rule:nonzero;"/>
        <path d="M16490,1710L16490,970L16640,970L16640,1290L16960,1290L16960,970L17120,970L17120,1710L16960,1710L16960,1410L16640,1410L16640,1710L16490,1710Z" style="fill:rgb(26,78,126);fill-rule:nonzero;"/>
        <path d="M15409,1530C15389,1525 15350,1512 15321,1500L15269,1480L15239,1502C15193,1537 15101,1539 15023,1507L14961,1482L14958,1503C14955,1523 14948,1525 14888,1528L14820,1531L14820,970L14970,970L14970,1390L14996,1400C15010,1406 15043,1410 15070,1410C15148,1410 15150,1403 15150,1168L15150,970L15300,970L15300,1390L15326,1400C15340,1406 15375,1410 15404,1410C15490,1410 15490,1409 15490,1172L15490,970L15640,970L15640,1199C15640,1419 15639,1428 15617,1461C15580,1518 15487,1549 15409,1530Z" style="fill:rgb(26,78,126);fill-rule:nonzero;"/>
    </g>
</svg>
