<?xml version="1.0" encoding="UTF-8" standalone="no"?>
<!DOCTYPE svg PUBLIC "-//W3C//DTD SVG 1.1//EN" "http://www.w3.org/Graphics/SVG/1.1/DTD/svg11.dtd">
<svg width="100%" height="100%" viewBox="0 0 359 96" version="1.1" xmlns="http://www.w3.org/2000/svg" xmlns:xlink="http://www.w3.org/1999/xlink" xml:space="preserve" xmlns:serif="http://www.serif.com/" style="fill-rule:evenodd;clip-rule:evenodd;stroke-linejoin:round;stroke-miterlimit:2;">
    <g transform="matrix(4.16667,0,0,4.16667,0,0)">
        <path d="M54.322,9.914C54.188,9.215 53.452,8.702 52.291,8.702C51.108,8.702 50.282,9.285 50.282,10.054C50.282,10.823 50.929,11.266 52.536,11.592C55.058,12.128 56.063,13.037 56.063,14.738C56.063,16.532 54.746,17.814 52.291,17.814C50.08,17.814 48.607,16.532 48.518,14.738L49.88,14.738C50.013,15.6 51.018,16.346 52.291,16.346C53.742,16.346 54.701,15.67 54.701,14.738C54.701,13.759 54.076,13.433 52.291,13.06C49.947,12.57 48.897,11.685 48.897,10.054C48.897,8.492 50.059,7.234 52.291,7.234C54.232,7.234 55.527,8.353 55.684,9.914L54.322,9.914Z" style="fill:rgb(87,87,86);fill-rule:nonzero;"/>
        <path d="M68.423,12.547C68.423,15.414 66.124,17.907 63.334,17.907C61.838,17.907 60.521,17.161 59.628,16.02L59.628,22.312L58.133,22.312L58.133,7.397L59.628,7.397L59.628,9.075C60.521,7.957 61.838,7.234 63.334,7.234C66.124,7.234 68.423,9.634 68.423,12.547ZM66.86,12.547C66.86,10.473 65.365,8.772 63.378,8.772C61.436,8.772 59.718,10.473 59.718,12.547C59.718,14.575 61.436,16.369 63.378,16.369C65.365,16.369 66.86,14.575 66.86,12.547Z" style="fill:rgb(87,87,86);fill-rule:nonzero;"/>
        <path d="M70.19,4.205C70.19,3.645 70.659,3.133 71.262,3.133C71.82,3.133 72.311,3.645 72.311,4.205C72.311,4.834 71.82,5.323 71.262,5.323C70.659,5.323 70.19,4.834 70.19,4.205ZM70.503,7.397L72.065,7.397L72.065,17.651L70.503,17.651L70.503,7.397Z" style="fill:rgb(87,87,86);fill-rule:nonzero;"/>
        <path d="M74.768,7.397L76.263,7.397L76.263,8.632C77.045,7.747 78.138,7.234 79.478,7.234C82.29,7.234 83.496,8.539 83.496,11.802L83.496,17.651L82,17.651L82,11.802C82,9.774 81.107,8.772 79.478,8.772C77.491,8.725 76.263,9.891 76.263,12.198L76.263,17.651L74.768,17.651L74.768,7.397Z" style="fill:rgb(87,87,86);fill-rule:nonzero;"/>
        <path d="M9.735,10.73C9.132,9.565 7.994,8.772 6.632,8.772C4.645,8.772 3.105,10.473 3.105,12.547C3.105,14.575 4.645,16.369 6.632,16.369C7.994,16.369 9.132,15.53 9.735,14.365L11.431,14.365C10.739,16.439 8.842,17.907 6.632,17.907C3.842,17.907 1.543,15.414 1.543,12.547C1.543,9.634 3.842,7.234 6.632,7.234C8.82,7.234 10.694,8.702 11.408,10.73L9.735,10.73Z" style="fill:rgb(162,198,23);fill-rule:nonzero;"/>
        <path d="M12.997,12.547C12.997,9.634 15.296,7.234 18.086,7.234C20.877,7.234 23.175,9.634 23.175,12.547C23.175,15.414 20.877,17.907 18.086,17.907C15.296,17.907 12.997,15.414 12.997,12.547ZM14.559,12.547C14.559,14.575 16.099,16.369 18.086,16.369C20.072,16.369 21.613,14.575 21.613,12.547C21.613,10.473 20.072,8.772 18.086,8.772C16.099,8.772 14.559,10.473 14.559,12.547Z" style="fill:rgb(162,198,23);fill-rule:nonzero;"/>
        <path d="M46.84,13.27L38.291,13.27C38.604,14.971 40.01,16.369 41.751,16.369C42.889,16.369 43.849,15.787 44.474,14.948L46.327,14.948C45.501,16.719 43.737,17.907 41.751,17.907C38.96,17.907 36.662,15.414 36.662,12.547C36.662,9.634 38.96,7.234 41.751,7.234C44.541,7.234 46.84,9.634 46.84,12.547L46.84,13.27ZM38.291,11.778L45.211,11.778C44.876,10.077 43.47,8.772 41.751,8.772C40.01,8.772 38.625,10.077 38.291,11.778Z" style="fill:rgb(162,198,23);fill-rule:nonzero;"/>
        <path d="M33.407,1.012L33.407,8.802C32.624,7.983 31.583,7.451 30.435,7.3C30.277,7.28 30.12,7.254 29.958,7.249C29.909,7.248 29.863,7.234 29.813,7.234C29.8,7.234 29.786,7.238 29.773,7.238C27.001,7.262 24.724,9.649 24.724,12.547C24.724,15.393 26.991,17.868 29.754,17.904C29.774,17.904 29.793,17.907 29.813,17.907C31.21,17.907 32.483,17.282 33.407,16.299C34.329,15.318 34.902,13.979 34.902,12.547L34.902,1.012L33.407,1.012ZM29.735,16.361C29.708,16.361 29.683,16.369 29.657,16.369C27.67,16.369 26.175,14.575 26.175,12.547C26.175,10.473 27.67,8.772 29.657,8.772C29.683,8.772 29.708,8.78 29.735,8.781C29.762,8.78 29.786,8.772 29.813,8.772C31.799,8.772 33.34,10.473 33.34,12.547C33.34,14.575 31.799,16.369 29.813,16.369C29.786,16.369 29.762,16.361 29.735,16.361Z" style="fill:rgb(162,198,23);fill-rule:nonzero;"/>
    </g>
</svg>
