<?xml version="1.0" encoding="UTF-8" standalone="no"?>
<!DOCTYPE svg PUBLIC "-//W3C//DTD SVG 1.1//EN" "http://www.w3.org/Graphics/SVG/1.1/DTD/svg11.dtd">
<svg width="100%" height="100%" viewBox="0 0 689 167" version="1.1" xmlns="http://www.w3.org/2000/svg" xmlns:xlink="http://www.w3.org/1999/xlink" xml:space="preserve" xmlns:serif="http://www.serif.com/" style="fill-rule:evenodd;clip-rule:evenodd;stroke-linejoin:round;stroke-miterlimit:2;">
    <g transform="matrix(1,0,0,1,-1011.79,-305.567)">
        <g transform="matrix(4.16667,0,0,4.16667,0,0)">
            <g transform="matrix(0.231899,0,0,0.210817,66.4762,-11.5239)">
                <text x="1018.37px" y="579px" style="font-family:'AbadiMT-CondensedLight', 'Abadi MT Condensed Light', sans-serif;font-stretch:condensed;font-size:58.284px;fill:white;">Ge<tspan x="1068.71px 1093.04px 1117.32px " y="579px 579px 579px ">bün</tspan>delte Kompetenz</text>
            </g>
        </g>
        <g transform="matrix(4.16667,0,0,4.16667,0,0)">
            <path d="M303.05,96.529L304.826,96.529L304.826,82.585L304.874,82.585L311.69,96.529L314.09,96.529L314.09,79.969L312.314,79.969L312.314,93.961L312.266,93.961L305.45,79.969L303.05,79.969L303.05,96.529Z" style="fill:white;fill-rule:nonzero;"/>
        </g>
        <g transform="matrix(4.16667,0,0,4.16667,0,0)">
            <path d="M320.087,96.529L328.318,96.529L328.318,94.969L321.958,94.969L321.958,88.633L327.815,88.633L327.815,87.073L321.958,87.073L321.958,81.529L328.103,81.529L328.103,79.969L320.087,79.969L320.087,96.529Z" style="fill:white;fill-rule:nonzero;"/>
        </g>
        <g transform="matrix(4.16667,0,0,4.16667,0,0)">
            <path d="M335.035,96.529L336.907,96.529L336.907,81.529L340.867,81.529L340.867,79.969L331.075,79.969L331.075,81.529L335.035,81.529L335.035,96.529Z" style="fill:white;fill-rule:nonzero;"/>
        </g>
        <g transform="matrix(4.16667,0,0,4.16667,0,0)">
            <path d="M346.6,96.529L348.88,96.529L352.768,82.465L352.817,82.465L356.656,96.529L358.96,96.529L361.888,79.969L360.208,79.969L357.664,94.176L357.616,94.176L353.752,79.969L351.785,79.969L347.896,94.176L347.849,94.176L345.328,79.969L343.648,79.969L346.6,96.529Z" style="fill:white;fill-rule:nonzero;"/>
        </g>
        <g transform="matrix(4.16667,0,0,4.16667,0,0)">
            <path d="M371.791,96.793C376.519,96.793 377.672,92.401 377.672,88.225C377.672,84.025 376.519,79.704 371.791,79.704C367.039,79.704 365.887,84.025 365.887,88.225C365.887,92.401 367.039,96.793 371.791,96.793ZM367.927,88.201C367.927,85.201 368.455,81.265 371.791,81.265C375.103,81.265 375.631,85.201 375.631,88.201C375.631,91.176 375.103,95.233 371.791,95.233C368.455,95.233 367.927,91.176 367.927,88.201Z" style="fill:white;"/>
        </g>
        <g transform="matrix(4.16667,0,0,4.16667,0,0)">
            <path d="M382.849,96.529L384.721,96.529L384.721,89.161L386.449,89.161C388.993,89.161 389.497,90.313 390.001,92.713L390.817,96.529L392.689,96.529L391.729,91.993C391.369,90.169 391.153,88.945 388.873,88.345L388.873,88.297C390.409,87.913 392.233,87.121 392.233,84.144C392.233,80.112 388.081,79.969 386.953,79.969L382.849,79.969L382.849,96.529ZM384.721,81.529L386.113,81.529C388.105,81.529 390.361,81.529 390.361,84.337C390.361,87.097 388.009,87.601 385.753,87.601L384.721,87.601L384.721,81.529Z" style="fill:white;"/>
        </g>
        <g transform="matrix(4.16667,0,0,4.16667,0,0)">
            <path d="M397.651,96.529L399.523,96.529L399.523,88.417L399.571,88.417L405.859,96.529L408.067,96.529L401.371,87.913L407.563,79.969L405.379,79.969L399.571,87.481L399.523,87.481L399.523,79.969L397.651,79.969L397.651,96.529Z" style="fill:white;fill-rule:nonzero;"/>
        </g>
        <g transform="matrix(4.16667,0,0,4.16667,0,0)">
            <path d="M255.373,92.142L256.648,93.683C255.566,94.743 254.516,95.506 253.5,95.969C252.495,96.422 251.396,96.648 250.203,96.649C247.806,96.649 245.978,95.948 244.719,94.545C243.46,93.131 242.83,91.082 242.83,88.397C242.83,86.586 243.172,85.023 243.857,83.708C244.553,82.383 245.547,81.384 246.84,80.709C248.132,80.025 249.612,79.683 251.28,79.682C252.175,79.682 253.064,79.748 253.948,79.881C254.842,80.003 255.654,80.174 256.383,80.395L256.383,84.388L253.103,84.388C252.937,83.349 252.689,82.593 252.357,82.118C252.026,81.643 251.55,81.406 250.932,81.405C250.523,81.405 250.131,81.51 249.756,81.72C249.391,81.919 249.065,82.273 248.778,82.78C248.502,83.277 248.281,83.952 248.116,84.802C247.95,85.642 247.867,86.707 247.867,88C247.867,89.292 247.988,90.386 248.231,91.28C248.474,92.164 248.866,92.849 249.408,93.335C249.949,93.81 250.661,94.047 251.545,94.047C252.186,94.047 252.787,93.91 253.351,93.633C253.925,93.357 254.599,92.86 255.373,92.142Z" style="fill:rgb(213,17,48);fill-rule:nonzero;"/>
        </g>
        <g transform="matrix(4.16667,0,0,4.16667,0,0)">
            <path d="M264.85,95.075C264.85,96.378 264.734,97.477 264.502,98.372C264.281,99.277 263.9,100.073 263.359,100.758C262.829,101.442 262.083,102.039 261.122,102.547C260.161,103.066 259.205,103.458 258.256,103.724L257.46,101.785C258.2,101.487 258.741,101.183 259.084,100.874C259.426,100.564 259.675,100.166 259.83,99.681C259.984,99.205 260.061,98.548 260.062,97.709L260.062,83.907C260.062,83.366 260.034,82.93 259.979,82.598C259.934,82.267 259.841,82.002 259.697,81.803C259.565,81.604 259.377,81.455 259.134,81.356C258.902,81.245 258.598,81.151 258.223,81.074L258.223,79.947L262.779,79.815L264.85,79.815L264.85,95.075Z" style="fill:rgb(213,17,48);fill-rule:nonzero;"/>
        </g>
        <g transform="matrix(4.16667,0,0,4.16667,0,0)">
            <rect x="260.178" y="73.336" width="4.54" height="4.06" style="fill:rgb(245,156,0);fill-rule:nonzero;"/>
        </g>
        <g transform="matrix(4.16667,0,0,4.16667,0,0)">
            <path d="M284.07,96.549L280.955,85.862L277.326,96.549L273.98,96.549L269.953,83.94C269.71,83.167 269.506,82.61 269.34,82.267C269.175,81.914 268.987,81.643 268.777,81.455C268.567,81.256 268.285,81.119 267.932,81.041L267.932,79.947L276.034,79.947L276.034,81.041C275.515,81.129 275.123,81.289 274.858,81.521C274.603,81.742 274.477,82.057 274.477,82.466C274.477,82.742 274.521,83.051 274.609,83.394C274.697,83.725 274.797,84.078 274.908,84.454L276.979,91.33L280.789,79.947L283.871,79.947L287.086,91.33L289.256,85.349C289.477,84.752 289.626,84.25 289.703,83.841C289.792,83.432 289.836,83.074 289.836,82.764C289.836,82.3 289.703,81.919 289.438,81.621C289.173,81.312 288.797,81.119 288.312,81.041L288.312,79.947L294.558,79.947L294.558,81.057C294.227,81.157 293.967,81.273 293.779,81.405C293.602,81.538 293.431,81.72 293.266,81.952C293.111,82.184 292.929,82.521 292.719,82.963C292.52,83.405 292.227,84.117 291.841,85.1L287.384,96.549L284.07,96.549Z" style="fill:rgb(213,17,48);fill-rule:nonzero;"/>
        </g>
    </g>
</svg>
